<?xml version="1.0" encoding="us-ascii" standalone="no"?><svg xmlns="http://www.w3.org/2000/svg" xmlns:xlink="http://www.w3.org/1999/xlink" contentStyleType="text/css" height="1318px" preserveAspectRatio="none" style="width:371px;height:1318px;background:#FFFFFF;" version="1.1" viewBox="0 0 371 1318" width="371px" zoomAndPan="magnify"><defs/><g><ellipse cx="192.5" cy="20" fill="#222222" rx="10" ry="10" style="stroke:#222222;stroke-width:1.0;"/><rect fill="#F1F1F1" height="33.9688" rx="12.5" ry="12.5" style="stroke:#181818;stroke-width:0.5;" width="265" x="60" y="50"/><text fill="#000000" font-family="sans-serif" font-size="12" lengthAdjust="spacing" textLength="245" x="70" y="71.1387">Configurar p&#225;gina con set_page_config</text><rect fill="#F1F1F1" height="33.9688" rx="12.5" ry="12.5" style="stroke:#181818;stroke-width:0.5;" width="269" x="58" y="152.3711"/><text fill="#000000" font-family="sans-serif" font-size="12" lengthAdjust="spacing" textLength="249" x="68" y="173.5098">Inicializar variables de estado de sesi&#243;n</text><polygon fill="#F1F1F1" points="94.5,103.9688,290.5,103.9688,302.5,115.9688,290.5,127.9688,94.5,127.9688,82.5,115.9688,94.5,103.9688" style="stroke:#181818;stroke-width:0.5;"/><text fill="#000000" font-family="sans-serif" font-size="11" lengthAdjust="spacing" textLength="10" x="196.5" y="138.1792">s&#237;</text><text fill="#000000" font-family="sans-serif" font-size="11" lengthAdjust="spacing" textLength="196" x="94.5" y="119.7769">Estado de la sesi&#243;n no inicializado</text><polygon fill="#F1F1F1" points="192.5,206.3398,204.5,218.3398,192.5,230.3398,180.5,218.3398,192.5,206.3398" style="stroke:#181818;stroke-width:0.5;"/><rect fill="#F1F1F1" height="33.9688" rx="12.5" ry="12.5" style="stroke:#181818;stroke-width:0.5;" width="197" x="94" y="250.3398"/><text fill="#000000" font-family="sans-serif" font-size="12" lengthAdjust="spacing" textLength="177" x="104" y="271.4785">Definir funciones principales</text><rect fill="#F1F1F1" height="33.9688" rx="12.5" ry="12.5" style="stroke:#181818;stroke-width:0.5;" width="154" x="115.5" y="304.3086"/><text fill="#000000" font-family="sans-serif" font-size="12" lengthAdjust="spacing" textLength="134" x="125.5" y="325.4473">adjust_page_padding</text><rect fill="#F1F1F1" height="33.9688" rx="12.5" ry="12.5" style="stroke:#181818;stroke-width:0.5;" width="154" x="115.5" y="358.2773"/><text fill="#000000" font-family="sans-serif" font-size="12" lengthAdjust="spacing" textLength="134" x="125.5" y="379.416">manage_leaderboard</text><rect fill="#F1F1F1" height="33.9688" rx="12.5" ry="12.5" style="stroke:#181818;stroke-width:0.5;" width="146" x="119.5" y="412.2461"/><text fill="#000000" font-family="sans-serif" font-size="12" lengthAdjust="spacing" textLength="126" x="129.5" y="433.3848">display_leaderboard</text><rect fill="#F1F1F1" height="33.9688" rx="12.5" ry="12.5" style="stroke:#181818;stroke-width:0.5;" width="133" x="126" y="466.2148"/><text fill="#000000" font-family="sans-serif" font-size="12" lengthAdjust="spacing" textLength="113" x="136" y="487.3535">setup_initial_page</text><rect fill="#F1F1F1" height="33.9688" rx="12.5" ry="12.5" style="stroke:#181818;stroke-width:0.5;" width="144" x="120.5" y="520.1836"/><text fill="#000000" font-family="sans-serif" font-size="12" lengthAdjust="spacing" textLength="124" x="130.5" y="541.3223">load_image_base64</text><rect fill="#F1F1F1" height="33.9688" rx="12.5" ry="12.5" style="stroke:#181818;stroke-width:0.5;" width="146" x="119.5" y="574.1523"/><text fill="#000000" font-family="sans-serif" font-size="12" lengthAdjust="spacing" textLength="126" x="129.5" y="595.291">check_button_press</text><rect fill="#F1F1F1" height="33.9688" rx="12.5" ry="12.5" style="stroke:#181818;stroke-width:0.5;" width="132" x="126.5" y="628.1211"/><text fill="#000000" font-family="sans-serif" font-size="12" lengthAdjust="spacing" textLength="112" x="136.5" y="649.2598">check_max_errors</text><rect fill="#F1F1F1" height="33.9688" rx="12.5" ry="12.5" style="stroke:#181818;stroke-width:0.5;" width="96" x="144.5" y="682.0898"/><text fill="#000000" font-family="sans-serif" font-size="12" lengthAdjust="spacing" textLength="76" x="154.5" y="703.2285">reset_board</text><rect fill="#F1F1F1" height="33.9688" rx="12.5" ry="12.5" style="stroke:#181818;stroke-width:0.5;" width="142" x="121.5" y="736.0586"/><text fill="#000000" font-family="sans-serif" font-size="12" lengthAdjust="spacing" textLength="122" x="131.5" y="757.1973">prepare_new_game</text><rect fill="#F1F1F1" height="33.9688" rx="12.5" ry="12.5" style="stroke:#181818;stroke-width:0.5;" width="121" x="132" y="790.0273"/><text fill="#000000" font-family="sans-serif" font-size="12" lengthAdjust="spacing" textLength="101" x="142" y="811.166">get_score_emoji</text><rect fill="#F1F1F1" height="33.9688" rx="12.5" ry="12.5" style="stroke:#181818;stroke-width:0.5;" width="86" x="149.5" y="843.9961"/><text fill="#000000" font-family="sans-serif" font-size="12" lengthAdjust="spacing" textLength="66" x="159.5" y="865.1348">new_game</text><rect fill="#F1F1F1" height="33.9688" rx="12.5" ry="12.5" style="stroke:#181818;stroke-width:0.5;" width="88" x="148.5" y="897.9648"/><text fill="#000000" font-family="sans-serif" font-size="12" lengthAdjust="spacing" textLength="68" x="158.5" y="919.1035">main_page</text><polygon fill="#F1F1F1" points="130,951.9336,255,951.9336,267,963.9336,255,975.9336,130,975.9336,118,963.9336,130,951.9336" style="stroke:#181818;stroke-width:0.5;"/><text fill="#000000" font-family="sans-serif" font-size="11" lengthAdjust="spacing" textLength="125" x="130" y="967.7417">main_page se ejecuta</text><text fill="#000000" font-family="sans-serif" font-size="11" lengthAdjust="spacing" textLength="10" x="108" y="961.3394">s&#237;</text><text fill="#000000" font-family="sans-serif" font-size="11" lengthAdjust="spacing" textLength="14" x="267" y="961.3394">no</text><rect fill="#F1F1F1" height="33.9688" rx="12.5" ry="12.5" style="stroke:#181818;stroke-width:0.5;" width="171" x="11" y="985.9336"/><text fill="#000000" font-family="sans-serif" font-size="12" lengthAdjust="spacing" textLength="151" x="21" y="1007.0723">Configurar p&#225;gina inicial</text><rect fill="#F1F1F1" height="33.9688" rx="12.5" ry="12.5" style="stroke:#181818;stroke-width:0.5;" width="156" x="18.5" y="1088.3047"/><text fill="#000000" font-family="sans-serif" font-size="12" lengthAdjust="spacing" textLength="136" x="28.5" y="1109.4434">Preparar nuevo juego</text><rect fill="#F1F1F1" height="33.9688" rx="12.5" ry="12.5" style="stroke:#181818;stroke-width:0.5;" width="153" x="20" y="1157.2734"/><text fill="#000000" font-family="sans-serif" font-size="12" lengthAdjust="spacing" textLength="133" x="30" y="1178.4121">Ejecutar nuevo juego</text><polygon fill="#F1F1F1" points="61.5,1039.9023,131.5,1039.9023,143.5,1051.9023,131.5,1063.9023,61.5,1063.9023,49.5,1051.9023,61.5,1039.9023" style="stroke:#181818;stroke-width:0.5;"/><text fill="#000000" font-family="sans-serif" font-size="11" lengthAdjust="spacing" textLength="10" x="100.5" y="1074.1128">s&#237;</text><text fill="#000000" font-family="sans-serif" font-size="11" lengthAdjust="spacing" textLength="70" x="61.5" y="1055.7104">Nuevo juego</text><polygon fill="#F1F1F1" points="96.5,1211.2422,108.5,1223.2422,96.5,1235.2422,84.5,1223.2422,96.5,1211.2422" style="stroke:#181818;stroke-width:0.5;"/><rect fill="#F1F1F1" height="33.9688" rx="12.5" ry="12.5" style="stroke:#181818;stroke-width:0.5;" width="144" x="216.5" y="985.9336"/><text fill="#000000" font-family="sans-serif" font-size="12" lengthAdjust="spacing" textLength="124" x="226.5" y="1007.0723">Ejecutar main_page</text><polygon fill="#F1F1F1" points="192.5,1241.2422,204.5,1253.2422,192.5,1265.2422,180.5,1253.2422,192.5,1241.2422" style="stroke:#181818;stroke-width:0.5;"/><ellipse cx="192.5" cy="1296.2422" fill="none" rx="11" ry="11" style="stroke:#222222;stroke-width:1.0;"/><ellipse cx="192.5" cy="1296.2422" fill="#222222" rx="6" ry="6" style="stroke:#222222;stroke-width:1.0;"/><line style="stroke:#181818;stroke-width:1.0;" x1="192.5" x2="192.5" y1="30" y2="50"/><polygon fill="#181818" points="188.5,40,192.5,50,196.5,40,192.5,44" style="stroke:#181818;stroke-width:1.0;"/><line style="stroke:#181818;stroke-width:1.0;" x1="192.5" x2="192.5" y1="127.9688" y2="152.3711"/><polygon fill="#181818" points="188.5,142.3711,192.5,152.3711,196.5,142.3711,192.5,146.3711" style="stroke:#181818;stroke-width:1.0;"/><line style="stroke:#181818;stroke-width:1.0;" x1="302.5" x2="337" y1="115.9688" y2="115.9688"/><polygon fill="#181818" points="333,159.3555,337,169.3555,341,159.3555,337,163.3555" style="stroke:#181818;stroke-width:1.0;"/><line style="stroke:#181818;stroke-width:1.0;" x1="337" x2="337" y1="115.9688" y2="218.3398"/><line style="stroke:#181818;stroke-width:1.0;" x1="337" x2="204.5" y1="218.3398" y2="218.3398"/><polygon fill="#181818" points="214.5,214.3398,204.5,218.3398,214.5,222.3398,210.5,218.3398" style="stroke:#181818;stroke-width:1.0;"/><line style="stroke:#181818;stroke-width:1.0;" x1="192.5" x2="192.5" y1="186.3398" y2="206.3398"/><polygon fill="#181818" points="188.5,196.3398,192.5,206.3398,196.5,196.3398,192.5,200.3398" style="stroke:#181818;stroke-width:1.0;"/><line style="stroke:#181818;stroke-width:1.0;" x1="192.5" x2="192.5" y1="83.9688" y2="103.9688"/><polygon fill="#181818" points="188.5,93.9688,192.5,103.9688,196.5,93.9688,192.5,97.9688" style="stroke:#181818;stroke-width:1.0;"/><line style="stroke:#181818;stroke-width:1.0;" x1="192.5" x2="192.5" y1="230.3398" y2="250.3398"/><polygon fill="#181818" points="188.5,240.3398,192.5,250.3398,196.5,240.3398,192.5,244.3398" style="stroke:#181818;stroke-width:1.0;"/><line style="stroke:#181818;stroke-width:1.0;" x1="192.5" x2="192.5" y1="284.3086" y2="304.3086"/><polygon fill="#181818" points="188.5,294.3086,192.5,304.3086,196.5,294.3086,192.5,298.3086" style="stroke:#181818;stroke-width:1.0;"/><line style="stroke:#181818;stroke-width:1.0;" x1="192.5" x2="192.5" y1="338.2773" y2="358.2773"/><polygon fill="#181818" points="188.5,348.2773,192.5,358.2773,196.5,348.2773,192.5,352.2773" style="stroke:#181818;stroke-width:1.0;"/><line style="stroke:#181818;stroke-width:1.0;" x1="192.5" x2="192.5" y1="392.2461" y2="412.2461"/><polygon fill="#181818" points="188.5,402.2461,192.5,412.2461,196.5,402.2461,192.5,406.2461" style="stroke:#181818;stroke-width:1.0;"/><line style="stroke:#181818;stroke-width:1.0;" x1="192.5" x2="192.5" y1="446.2148" y2="466.2148"/><polygon fill="#181818" points="188.5,456.2148,192.5,466.2148,196.5,456.2148,192.5,460.2148" style="stroke:#181818;stroke-width:1.0;"/><line style="stroke:#181818;stroke-width:1.0;" x1="192.5" x2="192.5" y1="500.1836" y2="520.1836"/><polygon fill="#181818" points="188.5,510.1836,192.5,520.1836,196.5,510.1836,192.5,514.1836" style="stroke:#181818;stroke-width:1.0;"/><line style="stroke:#181818;stroke-width:1.0;" x1="192.5" x2="192.5" y1="554.1523" y2="574.1523"/><polygon fill="#181818" points="188.5,564.1523,192.5,574.1523,196.5,564.1523,192.5,568.1523" style="stroke:#181818;stroke-width:1.0;"/><line style="stroke:#181818;stroke-width:1.0;" x1="192.5" x2="192.5" y1="608.1211" y2="628.1211"/><polygon fill="#181818" points="188.5,618.1211,192.5,628.1211,196.5,618.1211,192.5,622.1211" style="stroke:#181818;stroke-width:1.0;"/><line style="stroke:#181818;stroke-width:1.0;" x1="192.5" x2="192.5" y1="662.0898" y2="682.0898"/><polygon fill="#181818" points="188.5,672.0898,192.5,682.0898,196.5,672.0898,192.5,676.0898" style="stroke:#181818;stroke-width:1.0;"/><line style="stroke:#181818;stroke-width:1.0;" x1="192.5" x2="192.5" y1="716.0586" y2="736.0586"/><polygon fill="#181818" points="188.5,726.0586,192.5,736.0586,196.5,726.0586,192.5,730.0586" style="stroke:#181818;stroke-width:1.0;"/><line style="stroke:#181818;stroke-width:1.0;" x1="192.5" x2="192.5" y1="770.0273" y2="790.0273"/><polygon fill="#181818" points="188.5,780.0273,192.5,790.0273,196.5,780.0273,192.5,784.0273" style="stroke:#181818;stroke-width:1.0;"/><line style="stroke:#181818;stroke-width:1.0;" x1="192.5" x2="192.5" y1="823.9961" y2="843.9961"/><polygon fill="#181818" points="188.5,833.9961,192.5,843.9961,196.5,833.9961,192.5,837.9961" style="stroke:#181818;stroke-width:1.0;"/><line style="stroke:#181818;stroke-width:1.0;" x1="192.5" x2="192.5" y1="877.9648" y2="897.9648"/><polygon fill="#181818" points="188.5,887.9648,192.5,897.9648,196.5,887.9648,192.5,891.9648" style="stroke:#181818;stroke-width:1.0;"/><line style="stroke:#181818;stroke-width:1.0;" x1="96.5" x2="96.5" y1="1122.2734" y2="1157.2734"/><polygon fill="#181818" points="92.5,1147.2734,96.5,1157.2734,100.5,1147.2734,96.5,1151.2734" style="stroke:#181818;stroke-width:1.0;"/><line style="stroke:#181818;stroke-width:1.0;" x1="96.5" x2="96.5" y1="1063.9023" y2="1088.3047"/><polygon fill="#181818" points="92.5,1078.3047,96.5,1088.3047,100.5,1078.3047,96.5,1082.3047" style="stroke:#181818;stroke-width:1.0;"/><line style="stroke:#181818;stroke-width:1.0;" x1="143.5" x2="184.5" y1="1051.9023" y2="1051.9023"/><polygon fill="#181818" points="180.5,1129.7734,184.5,1139.7734,188.5,1129.7734,184.5,1133.7734" style="stroke:#181818;stroke-width:1.0;"/><line style="stroke:#181818;stroke-width:1.0;" x1="184.5" x2="184.5" y1="1051.9023" y2="1223.2422"/><line style="stroke:#181818;stroke-width:1.0;" x1="184.5" x2="108.5" y1="1223.2422" y2="1223.2422"/><polygon fill="#181818" points="118.5,1219.2422,108.5,1223.2422,118.5,1227.2422,114.5,1223.2422" style="stroke:#181818;stroke-width:1.0;"/><line style="stroke:#181818;stroke-width:1.0;" x1="96.5" x2="96.5" y1="1191.2422" y2="1211.2422"/><polygon fill="#181818" points="92.5,1201.2422,96.5,1211.2422,100.5,1201.2422,96.5,1205.2422" style="stroke:#181818;stroke-width:1.0;"/><line style="stroke:#181818;stroke-width:1.0;" x1="96.5" x2="96.5" y1="1019.9023" y2="1039.9023"/><polygon fill="#181818" points="92.5,1029.9023,96.5,1039.9023,100.5,1029.9023,96.5,1033.9023" style="stroke:#181818;stroke-width:1.0;"/><line style="stroke:#181818;stroke-width:1.0;" x1="118" x2="96.5" y1="963.9336" y2="963.9336"/><line style="stroke:#181818;stroke-width:1.0;" x1="96.5" x2="96.5" y1="963.9336" y2="985.9336"/><polygon fill="#181818" points="92.5,975.9336,96.5,985.9336,100.5,975.9336,96.5,979.9336" style="stroke:#181818;stroke-width:1.0;"/><line style="stroke:#181818;stroke-width:1.0;" x1="267" x2="288.5" y1="963.9336" y2="963.9336"/><line style="stroke:#181818;stroke-width:1.0;" x1="288.5" x2="288.5" y1="963.9336" y2="985.9336"/><polygon fill="#181818" points="284.5,975.9336,288.5,985.9336,292.5,975.9336,288.5,979.9336" style="stroke:#181818;stroke-width:1.0;"/><line style="stroke:#181818;stroke-width:1.0;" x1="96.5" x2="96.5" y1="1235.2422" y2="1253.2422"/><line style="stroke:#181818;stroke-width:1.0;" x1="96.5" x2="180.5" y1="1253.2422" y2="1253.2422"/><polygon fill="#181818" points="170.5,1249.2422,180.5,1253.2422,170.5,1257.2422,174.5,1253.2422" style="stroke:#181818;stroke-width:1.0;"/><line style="stroke:#181818;stroke-width:1.0;" x1="288.5" x2="288.5" y1="1019.9023" y2="1253.2422"/><line style="stroke:#181818;stroke-width:1.0;" x1="288.5" x2="204.5" y1="1253.2422" y2="1253.2422"/><polygon fill="#181818" points="214.5,1249.2422,204.5,1253.2422,214.5,1257.2422,210.5,1253.2422" style="stroke:#181818;stroke-width:1.0;"/><line style="stroke:#181818;stroke-width:1.0;" x1="192.5" x2="192.5" y1="931.9336" y2="951.9336"/><polygon fill="#181818" points="188.5,941.9336,192.5,951.9336,196.5,941.9336,192.5,945.9336" style="stroke:#181818;stroke-width:1.0;"/><line style="stroke:#181818;stroke-width:1.0;" x1="192.5" x2="192.5" y1="1265.2422" y2="1285.2422"/><polygon fill="#181818" points="188.5,1275.2422,192.5,1285.2422,196.5,1275.2422,192.5,1279.2422" style="stroke:#181818;stroke-width:1.0;"/><!--SRC=[RL4xLiCm4EnzYYsJdaSHbv22XiSDzDRIsbbZh_Jq2P_RS00gZf2BiNQCoGjqqipiQBIJCiPSLRixBort9MA4SFheM12i5qYKJS2EZ9tvkgguXSq-PNGU7C60Aaby-X8G3oni6GT-LtOB-K02ctJwt5O0kuULYt34oDWCb2OBMiqMfxeYSTngg7jgrJ92MyIo5zM7o7eCgBEQPOUkBsb96D0v5esu6r4cO21q51kFqIdeE8K1twvG_Ly9HX_9cctsKN3mw0oFaqU3YMvl5BC7ii-cAJbxCI5IIYiuugkX67sS86LqPJ_sAWmOoGYzc0x7oRnJEbcl88s-PqKko15PbXJpejUxxWQe9rioNY_sd-QM7cgb9vV7GaSFVQ7kkXKTVveZwh3ygkepjJy_-8SwrqE3Pjg8dqEiqeiVB2scxCCt]--></g></svg>